<svg id="Capa_1" enable-background="new 0 0 512 512" height="512" viewBox="0 0 512 512" width="512" xmlns="http://www.w3.org/2000/svg"><g><g><path d="m470.339 254.067 41.453-172.733c1.119-4.661-2.414-9.142-7.208-9.142h-363.163l13.804 93.003 31.079 90.047 143.352 8.407z" fill="#9dc6fb"/><path d="m186.112 254.461-6.798 8.983 11.366 9.651 263.106-.742c7.143-.02 13.345-4.925 15.012-11.871l1.605-6.689z" fill="#80b4fb"/></g><g><path d="m226.767 324.095c-2.473 5.762-4.742 11.941-6.731 18.581l109.756 9 109.471-9c-1.99-6.639-4.258-12.818-6.732-18.581l-102.739-9z" fill="#e84642"/><path d="m432.531 324.095c-25.269-58.865-72.394-73.413-72.394-73.413h-.019c-9.186 4.544-19.526 7.11-30.468 7.11-10.943 0-21.282-2.566-30.468-7.11h-.019s-47.126 14.548-72.394 73.413z" fill="#f95750"/><path d="m329.651 292.485c29.185 0 30.486-41.803 30.486-41.803h-.019-60.937-.015s1.3 41.803 30.485 41.803z" fill="#ebbaa1"/><path d="m250.686 181.682 10.141-11.351 9-12.18-9-10.602c-3.06-1.503-6.501-2.351-10.141-2.351-9.414 0-17.503 5.65-21.075 13.742 0 17.211 11.661 22.742 21.075 22.742z" fill="#ebbaa1"/><path d="m229.611 158.94c-1.255 2.843-1.957 5.984-1.957 9.29 0 12.72 10.312 23.032 23.032 23.032 3.64 0 7.081-.847 10.141-2.351l9-8.853-9-9.727c-3.06 1.503-6.501 2.351-10.141 2.351-9.414 0-17.503-5.65-21.075-13.742z" fill="#e8a990"/><path d="m408.611 181.682-10.141-11.351-9-12.18 9-10.602c3.06-1.503 6.501-2.351 10.141-2.351 9.414 0 17.503 5.65 21.075 13.742 0 17.211-11.661 22.742-21.075 22.742z" fill="#ebbaa1"/><path d="m429.686 158.94c1.255 2.843 1.957 5.984 1.957 9.29 0 12.72-10.312 23.032-23.032 23.032-3.64 0-7.081-.847-10.141-2.351l-9-8.853 9-9.727c3.06 1.503 6.501 2.351 10.141 2.351 9.414 0 17.503-5.65 21.075-13.742z" fill="#e8a990"/><path d="m329.649 248.211c38.009 0 68.822-31.456 68.822-77.822v-34.507l-68.822-9.581-68.822 9.581v34.507c0 47.483 30.812 77.822 68.822 77.822z" fill="#fdd4bb"/><path d="m408.682 117.302c-8.33-56.228-40.746-73.927-79.033-73.927s-70.703 17.699-79.033 73.927l79.033 9z" fill="#f3584d"/><path d="m250.61 117.302c-.621 4.195-1.109 8.603-1.454 13.234-.216 2.889 2.092 5.346 4.989 5.346h47.782l27.721-9.581 27.721 9.581h47.782c2.897 0 5.205-2.457 4.989-5.346-.346-4.632-.833-9.04-1.455-13.234z" fill="#e84642"/><path d="m329.649 239.211c-38.009 0-68.822-30.813-68.822-68.822v18.581c0 38.009 30.813 68.822 68.822 68.822 38.009 0 68.822-30.813 68.822-68.822v-18.581c0 38.01-30.813 68.822-68.822 68.822z" fill="#f7c4a8"/><path d="m357.37 105.161v-3.344c0-15.31-12.411-27.721-27.721-27.721-15.31 0-27.721 12.411-27.721 27.721v3.344l27.721 9z" fill="#5a5b77"/><path d="m356.875 118.803.495-13.642h-55.443v12.141l27.722 9z" fill="#cb3541"/><path d="m301.927 117.302h55.443v18.581h-55.443z" fill="#b53939"/></g><g><path d="m2.513 18.414c0 10.525 9.178 18.25 16.028 18.25h58.235c11.376 0 17.79 1.763 20.599 11.599l54.488 222.227c-21.339 5.143-37.899 22.677-41.618 44.53-.789 29.268 27.213 55.126 54.597 55.126h318.782c6.85 0 16.028-2.975 16.028-18.251-3.21-5.525-9.178-9.25-16.028-9.25h-318.784c-10.093 0-18.304-8.211-18.304-18.305 0-10.093 8.211-18.304 18.304-18.304 8.226 0 15.856-3.712 20.933-10.185 5.077-6.472 6.865-14.767 4.907-22.757l-57.291-233.661c-4.37-17.822-20.237-30.269-38.587-30.269h-76.261c-6.851 0-12.818 3.725-16.028 9.25z" fill="#e6e2e6"/><path d="m219.343 493.256c30.837 0 60.856-28.364 60.856-61.264-4.479-29.587-30.019-52.264-60.856-52.264-30.838 0-56.377 22.677-60.856 52.265 0 39.096 30.019 61.263 60.856 61.263z" fill="#565e74"/><path d="m191.02 431.991c0 19.549 15.106 29.517 28.323 29.517s28.323-12.663 28.323-29.517c-3.905-11.912-15.106-20.517-28.324-20.517s-24.417 8.606-28.322 20.517z" fill="#ffdd91"/><path d="m219.343 484.256c-30.837 0-56.377-22.677-60.856-52.264-.459 3.03-.698 6.132-.698 9.29 0 33.995 27.559 61.555 61.555 61.555s61.555-27.559 61.555-61.555c0-3.158-.24-6.26-.699-9.29-4.48 29.586-30.019 52.264-60.857 52.264z" fill="#495160"/><path d="m219.343 452.509c-13.217 0-24.418-8.606-28.323-20.517-.959 2.924-1.484 6.045-1.484 9.29 0 16.462 13.345 29.808 29.808 29.808 16.462 0 29.808-13.346 29.808-29.808 0-3.245-.525-6.366-1.484-9.29-3.906 11.911-15.107 20.517-28.325 20.517z" fill="#f9cd80"/><path d="m413.148 493.256c30.837 0 60.856-28.364 60.856-61.264-4.479-29.587-30.019-52.264-60.856-52.264-30.838 0-56.377 22.677-60.856 52.265 0 39.096 30.019 61.263 60.856 61.263z" fill="#565e74"/><path d="m384.825 431.991c0 19.549 15.106 29.517 28.323 29.517s28.323-12.663 28.323-29.517c-3.905-11.912-15.106-20.517-28.324-20.517-13.216 0-24.417 8.606-28.322 20.517z" fill="#ffdd91"/><path d="m413.148 484.256c-30.837 0-56.377-22.677-60.856-52.264-.459 3.03-.698 6.132-.698 9.29 0 33.995 27.559 61.555 61.555 61.555s61.555-27.559 61.555-61.555c0-3.158-.24-6.26-.699-9.29-4.48 29.586-30.019 52.264-60.857 52.264z" fill="#495160"/><path d="m413.148 452.509c-13.217 0-24.418-8.606-28.323-20.517-.959 2.924-1.484 6.045-1.484 9.29 0 16.462 13.345 29.808 29.808 29.808 16.462 0 29.808-13.346 29.808-29.808 0-3.245-.525-6.366-1.484-9.29-3.907 11.911-15.107 20.517-28.325 20.517z" fill="#f9cd80"/><g><g><g><path d="m483.622 361.146h-318.782c-27.383 0-50.175-19.981-54.596-46.127-.516 3.031-.789 6.145-.789 9.321 0 30.54 24.846 55.386 55.386 55.386h318.782c10.24 0 18.541-8.301 18.541-18.541 0-3.389-.924-6.556-2.513-9.29-3.211 5.526-9.178 9.251-16.029 9.251z" fill="#d3d1d3"/></g><g><path d="m97.374 48.263c0-11.376-9.222-20.599-20.599-20.599h-58.234c-6.85 0-12.818-3.725-16.028-9.25-1.816 3.126-2.764 6.818-2.455 10.763.764 9.733 9.237 17.068 19 17.068h75.743c1.224 0 2.282.83 2.573 2.018z" fill="#d3d1d3"/></g></g></g></g><g><path d="m352.581 163.948v11.168c0 4.284 3.473 7.757 7.757 7.757 4.285 0 7.757-3.473 7.757-7.757v-11.168c0-4.284-3.473-7.757-7.757-7.757-4.285 0-7.757 3.473-7.757 7.757z" fill="#565e74"/><path d="m307.001 175.116v-11.168c0-4.284-3.473-7.757-7.757-7.757-4.285 0-7.757 3.473-7.757 7.757v11.168c0 4.284 3.473 7.757 7.757 7.757 4.285 0 7.757-3.473 7.757-7.757z" fill="#565e74"/><path d="m347.641 201.074c-3.172 0-5.896 1.907-7.098 4.634-.305.604-2.745 4.86-10.751 4.86s-10.446-4.256-10.751-4.86c-1.202-2.728-3.925-4.634-7.098-4.634-4.284 0-7.757 3.473-7.757 7.757 0 1.05.211 2.051.589 2.964 0 0 .012.034.018.05.004.01.009.019.013.028 2.225 5.315 9.947 14.209 24.985 14.209s22.76-8.894 24.985-14.209c.004-.01.009-.019.013-.028.007-.016.018-.05.018-.05.378-.913.589-1.914.589-2.964.002-4.284-3.471-7.757-7.755-7.757z" fill="#f95750"/></g></g></svg>