<svg enable-background="new 0 0 64 64" height="512" viewBox="0 0 64 64" width="512" xmlns="http://www.w3.org/2000/svg"><g id="Icons"><g><g><path d="m42.681 16h-34.681c-2.209 0-4 1.791-4 4v6h48v-3.6c-4.244 0-7.87-2.662-9.319-6.4z" fill="#64c8f0"/></g><g><path d="m4 26v30c0 2.209 1.791 4 4 4h40c2.209 0 4-1.791 4-4v-30z" fill="#f0f0f0"/></g><g><path d="m8 56v-30h-4v30c0 2.209 1.791 4 4 4h4c-2.209 0-4-1.791-4-4z" fill="#d2d2d2"/></g><g><path d="m12 16h-4c-2.209 0-4 1.791-4 4v6h4v-6c0-2.209 1.791-4 4-4z" fill="#46aad2"/></g><g><path d="m18 20c-1.105 0-2-.895-2-2v-4c0-1.105.895-2 2-2 1.105 0 2 .895 2 2v4c0 1.105-.895 2-2 2z" fill="#fa6450"/></g><g><path d="m28 20c-1.105 0-2-.895-2-2v-4c0-1.105.895-2 2-2 1.105 0 2 .895 2 2v4c0 1.105-.895 2-2 2z" fill="#fa6450"/></g><g><path d="m38 20c-1.105 0-2-.895-2-2v-4c0-1.105.895-2 2-2 1.105 0 2 .895 2 2v4c0 1.105-.895 2-2 2z" fill="#fa6450"/></g><g><path d="m16.527 50h-6.527v4h10.826c-1.699-1.02-3.166-2.381-4.299-4z" fill="#3cc8b4"/></g><g><path d="m10 50h2v4h-2z" fill="#1eaa96"/></g><g><path d="m46 52-4-4v2h-14c-4.418 0-8-3.582-8-8s3.582-8 8-8 8 3.582 8 8c0 2.393-1.056 4.534-2.721 6h5.102c1.024-1.766 1.619-3.812 1.619-6 0-6.627-5.373-12-12-12s-12 5.373-12 12 5.373 12 12 12h14v2z" fill="#3cc8b4"/></g><g><path d="m36 42c0 2.393-1.056 4.534-2.721 6h2c1.665-1.466 2.721-3.607 2.721-6 0-4.418-3.582-8-8-8-.339 0-.672.028-1 .069 3.945.493 7 3.852 7 7.931z" fill="#1eaa96"/></g><g><path d="m18 42c0-6.29 4.842-11.44 11-11.949-.331-.028-.662-.051-1-.051-6.627 0-12 5.373-12 12s5.373 12 12 12h2c-6.627 0-12-5.373-12-12z" fill="#1eaa96"/></g><g><path d="m28 48c-3.314 0-6-2.686-6-6 0-3.314 2.686-6 6-6 3.314 0 6 2.686 6 6 0 3.314-2.686 6-6 6z" fill="#505050"/></g><g><path d="m26.354 44.354-.708-.708 1.854-1.853v-3.793h1v4.207z" fill="#f0f0f0"/></g><g><path d="m28 43c-.552 0-1-.448-1-1 0-.552.448-1 1-1 .552 0 1 .448 1 1 0 .552-.448 1-1 1z" fill="#fa6450"/></g><g><path d="m52 20.4c-4.418 0-8-3.582-8-8 0-4.418 3.582-8 8-8 4.418 0 8 3.582 8 8 0 4.418-3.582 8-8 8z" fill="#fab400"/></g><g><path d="m46 12.4c0-4.079 3.055-7.438 7-7.931-.328-.041-.661-.069-1-.069-4.418 0-8 3.582-8 8s3.582 8 8 8c.339 0 .672-.028 1-.069-3.945-.493-7-3.852-7-7.931z" fill="#dc9600"/></g><g><path d="m56 13.2v-1.6h-.905c-.076-.293-.191-.569-.341-.823l.64-.64-1.131-1.131-.64.64c-.254-.15-.53-.265-.823-.341v-.905h-1.6v.905c-.293.076-.569.191-.823.341l-.64-.64-1.131 1.131.64.64c-.15.254-.265.53-.341.823h-.905v1.6h.905c.076.293.191.569.341.823l-.64.64 1.131 1.131.64-.64c.254.15.53.265.823.341v.905h1.6v-.905c.293-.076.569-.191.823-.341l.64.64 1.131-1.131-.64-.64c.15-.254.265-.53.341-.823zm-4 .8c-.882 0-1.6-.718-1.6-1.6s.718-1.6 1.6-1.6 1.6.718 1.6 1.6-.718 1.6-1.6 1.6z" fill="#f0f0f0"/></g></g></g></svg>