<svg id="flat" height="512" viewBox="0 0 512 512" width="512" xmlns="http://www.w3.org/2000/svg"><path d="m136 408h64v56h-64z" fill="#cad8ed"/><path d="m168 440a8.00008 8.00008 0 0 1 -8-8v-24a8 8 0 0 1 16 0v24a8.00008 8.00008 0 0 1 -8 8z" fill="#a6bce3"/><g fill="#f7d179"><path d="m392 200h16v112h-16z"/><path d="m312 320h72v16h-72z"/><path d="m240 120h80v16h-80z"/></g><path d="m72 80v-16a40 40 0 0 1 40-40 40.01374 40.01374 0 0 1 39.19982 32h24.80018a32 32 0 0 1 32 32v8h16a32 32 0 0 1 32 32 32 32 0 0 1 -32 32h-160a40 40 0 0 1 -40-40 40 40 0 0 1 40-40z" fill="#96cffa"/><path d="m312 240v152a16 16 0 0 1 -16 16h-256a16 16 0 0 1 -16-16v-152z" fill="#5771e5"/><path d="m24 240v-32a16 16 0 0 1 16-16h256a16 16 0 0 1 16 16v32z" fill="#89a8f5"/><path d="m123.2002 350.40039-32-24a8.00048 8.00048 0 0 1 0-12.80078l32-24 9.5996 12.80078-23.4663 17.59961 23.4663 17.59961z" fill="#a2c1fa"/><path d="m212.7998 350.40039-9.5996-12.80078 23.4663-17.59961-23.4663-17.59961 9.5996-12.80078 32 24a8.00048 8.00048 0 0 1 0 12.80078z" fill="#a2c1fa"/><path d="m110.729 316h114.543v16h-114.543z" fill="#a2c1fa" transform="matrix(.419 -.908 .908 .419 -196.581 340.759)"/><path d="m112 464h112v24h-112z" fill="#e4e9f2"/><path d="m473.70972 112a14.53151 14.53151 0 0 1 -13.42542-8.9707h-.00012a14.53145 14.53145 0 0 1 3.15015-15.83618l10.10473-10.10474-22.62744-22.62744-10.10474 10.10473a14.53148 14.53148 0 0 1 -24.80688-10.27539v-14.29028h-32v14.29028a14.53148 14.53148 0 0 1 -24.80688 10.27539l-10.10474-10.10473-22.62744 22.62744 10.10473 10.10474a14.53145 14.53145 0 0 1 3.15015 15.83618h-.00012a14.53151 14.53151 0 0 1 -13.42542 8.9707h-14.29028v32h14.29028a14.53165 14.53165 0 0 1 13.42542 8.97046l.00012.00024a14.53145 14.53145 0 0 1 -3.15015 15.83618l-10.10473 10.10474 22.62744 22.62744 10.10474-10.10473a14.53148 14.53148 0 0 1 24.80688 10.27539v14.29028h32v-14.29028a14.53148 14.53148 0 0 1 24.80688-10.27539l10.10474 10.10473 22.62744-22.62744-10.10473-10.10474a14.53145 14.53145 0 0 1 -3.15015-15.83618l.00012-.00024a14.53165 14.53165 0 0 1 13.42542-8.97046h14.29028v-32zm-73.70972 40a24 24 0 1 1 24-24 23.99994 23.99994 0 0 1 -24 24z" fill="#ed6445"/><rect fill="#7ab8f5" height="32" rx="8" width="16" x="144" y="56"/><rect fill="#7ab8f5" height="16" rx="8" width="24" x="72" y="72"/><circle cx="400" cy="328" fill="#f7c04a" r="16"/><path d="m400 352a24 24 0 1 1 24-24 24.02718 24.02718 0 0 1 -24 24zm0-32a8 8 0 1 0 8 8 8.00917 8.00917 0 0 0 -8-8z" fill="#fcedc0"/><circle cx="48" cy="216" fill="#f79a7e" r="8"/><circle cx="72" cy="216" fill="#f7c04a" r="8"/><circle cx="96" cy="216" fill="#90d4b1" r="8"/></svg>