<svg height="400pt" viewBox="-31 0 399 400" width="400pt" xmlns="http://www.w3.org/2000/svg"><path d="m8.5 48h240c4.417969 0 8 3.582031 8 8v336c0 4.417969-3.582031 8-8 8h-240c-4.417969 0-8-3.582031-8-8v-336c0-4.417969 3.582031-8 8-8zm0 0" fill="#3d9ae2"/><path d="m40.5 96h64c4.417969 0 8 3.582031 8 8v64c0 4.417969-3.582031 8-8 8h-64c-4.417969 0-8-3.582031-8-8v-64c0-4.417969 3.582031-8 8-8zm0 0" fill="#00479b"/><path d="m40.5 192h64c4.417969 0 8 3.582031 8 8v64c0 4.417969-3.582031 8-8 8h-64c-4.417969 0-8-3.582031-8-8v-64c0-4.417969 3.582031-8 8-8zm0 0" fill="#00479b"/><path d="m40.5 288h64c4.417969 0 8 3.582031 8 8v64c0 4.417969-3.582031 8-8 8h-64c-4.417969 0-8-3.582031-8-8v-64c0-4.417969 3.582031-8 8-8zm0 0" fill="#00479b"/><g fill="#003f8a"><path d="m216.5 240h-80c-4.417969 0-8-3.582031-8-8s3.582031-8 8-8h80c4.417969 0 8 3.582031 8 8s-3.582031 8-8 8zm0 0"/><path d="m216.5 336h-80c-4.417969 0-8-3.582031-8-8s3.582031-8 8-8h80c4.417969 0 8 3.582031 8 8s-3.582031 8-8 8zm0 0"/><path d="m184.5 304h-48c-4.417969 0-8-3.582031-8-8s3.582031-8 8-8h48c4.417969 0 8 3.582031 8 8s-3.582031 8-8 8zm0 0"/><path d="m216.5 368h-80c-4.417969 0-8-3.582031-8-8s3.582031-8 8-8h80c4.417969 0 8 3.582031 8 8s-3.582031 8-8 8zm0 0"/><path d="m184.5 208h-48c-4.417969 0-8-3.582031-8-8s3.582031-8 8-8h48c4.417969 0 8 3.582031 8 8s-3.582031 8-8 8zm0 0"/><path d="m216.5 272h-80c-4.417969 0-8-3.582031-8-8s3.582031-8 8-8h80c4.417969 0 8 3.582031 8 8s-3.582031 8-8 8zm0 0"/><path d="m184.5 112h-48c-4.417969 0-8-3.582031-8-8s3.582031-8 8-8h48c4.417969 0 8 3.582031 8 8s-3.582031 8-8 8zm0 0"/><path d="m216.5 176h-80c-4.417969 0-8-3.582031-8-8s3.582031-8 8-8h80c4.417969 0 8 3.582031 8 8s-3.582031 8-8 8zm0 0"/><path d="m216.5 144h-80c-4.417969 0-8-3.582031-8-8s3.582031-8 8-8h80c4.417969 0 8 3.582031 8 8s-3.582031 8-8 8zm0 0"/></g><path d="m144.5 0h-32c-13.253906 0-24 10.746094-24 24v16c0 4.417969 3.582031 8 8 8h64c4.417969 0 8-3.582031 8-8v-16c0-13.253906-10.746094-24-24-24zm0 0" fill="#9cdd05"/><path d="m168.5 40v-16c0-13.253906-10.746094-24-24-24h-16v48h32c4.417969 0 8-3.582031 8-8zm0 0" fill="#b2fa09"/><path d="m64.5 32h128c4.417969 0 8 3.582031 8 8v32c0 4.417969-3.582031 8-8 8h-128c-4.417969 0-8-3.582031-8-8v-32c0-4.417969 3.582031-8 8-8zm0 0" fill="#6dc82a"/><path d="m280.5 128h48c4.417969 0 8 3.582031 8 8v176c0 4.417969-3.582031 8-8 8h-48c-4.417969 0-8-3.582031-8-8v-176c0-4.417969 3.582031-8 8-8zm0 0" fill="#6dc82a"/><path d="m328.5 128h-24v192h24c4.417969 0 8-3.582031 8-8v-176c0-4.417969-3.582031-8-8-8zm0 0" fill="#9cdd05"/><path d="m312.5 80h-16c-13.253906 0-24 10.746094-24 24v40h64v-40c0-13.253906-10.746094-24-24-24zm0 0" fill="#003f8a"/><path d="m335.308594 307.792969c-1.460938-2.359375-4.035156-3.792969-6.808594-3.792969h-48c-2.78125-.015625-5.367188 1.414062-6.835938 3.773438-1.46875 2.363281-1.605468 5.316406-.363281 7.800781l24 48c1.351563 2.71875 4.125 4.433593 7.160157 4.433593 3.03125 0 5.804687-1.714843 7.160156-4.433593l24-48c1.25-2.472657 1.132812-5.417969-.3125-7.78125zm0 0" fill="#165c92"/><path d="m328.5 304h-24v64c3.046875.015625 5.839844-1.699219 7.199219-4.425781l24-48c1.242187-2.484375 1.105469-5.4375-.363281-7.800781-1.46875-2.359376-4.054688-3.789063-6.835938-3.773438zm0 0" fill="#1e81ce"/><path d="m312.5 80h-8v64h32v-40c0-13.253906-10.746094-24-24-24zm0 0" fill="#165c92"/><path d="m192.5 32h-64v48h64c4.417969 0 8-3.582031 8-8v-32c0-4.417969-3.582031-8-8-8zm0 0" fill="#9cdd05"/></svg>