<?xml version="1.0" encoding="iso-8859-1"?>
<!-- Generator: Adobe Illustrator 21.0.0, SVG Export Plug-In . SVG Version: 6.00 Build 0)  -->
<svg version="1.1" id="Capa_1" xmlns="http://www.w3.org/2000/svg" xmlns:xlink="http://www.w3.org/1999/xlink" x="0px" y="0px"
	 viewBox="0 0 512 512" style="enable-background:new 0 0 512 512;" xml:space="preserve">
<circle style="fill:#00EDFF;" cx="256" cy="256" r="256"/>
<path style="fill:#00C7E8;" d="M512,256c0-12.629-0.93-25.039-2.697-37.178L435,144.519l-107.616,85.825l-85.825-85.825L77,367.481
	l141.822,141.822C230.961,511.069,243.371,512,256,512C397.385,512,512,397.385,512,256z"/>
<rect x="77" y="144.52" style="fill:#FFFFFF;" width="164.56" height="222.96"/>
<rect x="157.36" y="144.52" style="fill:#F2F6FC;" width="84.2" height="222.96"/>
<rect x="270.44" y="144.52" style="fill:#FFFFFF;" width="164.56" height="222.96"/>
<rect x="352" y="144.52" style="fill:#F2F6FC;" width="83" height="222.96"/>
<rect x="293" y="173.5" style="fill:#FF0086;" width="118.67" height="59.17"/>
<rect x="352" y="173.5" style="fill:#D60569;" width="59.667" height="59.17"/>
<rect x="293" y="249" style="fill:#E1E1E6;" width="118.67" height="17.333"/>
<rect x="352" y="249" style="fill:#D2D2D7;" width="59.667" height="17.333"/>
<rect x="293" y="282.67" style="fill:#E1E1E6;" width="118.67" height="17.333"/>
<rect x="352" y="282.67" style="fill:#D2D2D7;" width="59.667" height="17.333"/>
<rect x="293" y="316.33" style="fill:#E1E1E6;" width="118.67" height="17.333"/>
<rect x="352" y="316.33" style="fill:#D2D2D7;" width="59.667" height="17.333"/>
<rect x="99.95" y="249" style="fill:#E1E1E6;" width="118.67" height="17.333"/>
<rect x="157.36" y="249" style="fill:#D2D2D7;" width="61.26" height="17.333"/>
<rect x="99.95" y="215.33" style="fill:#E1E1E6;" width="118.67" height="17.333"/>
<rect x="157.36" y="215.33" style="fill:#D2D2D7;" width="61.26" height="17.333"/>
<rect x="99.95" y="181.67" style="fill:#E1E1E6;" width="118.67" height="17.333"/>
<rect x="157.36" y="181.67" style="fill:#D2D2D7;" width="61.26" height="17.333"/>
<rect x="99.95" y="282.67" style="fill:#E1E1E6;" width="118.67" height="17.333"/>
<rect x="157.36" y="282.67" style="fill:#D2D2D7;" width="61.26" height="17.333"/>
<rect x="99.95" y="316.33" style="fill:#E1E1E6;" width="118.67" height="17.333"/>
<rect x="157.36" y="316.33" style="fill:#D2D2D7;" width="61.26" height="17.333"/>
<rect x="231.92" y="159.87" style="fill:#414952;" width="48.16" height="18.5"/>
<rect x="255.57" y="159.87" style="fill:#23272B;" width="24.51" height="18.5"/>
<g>
	<rect x="231.92" y="194.62" style="fill:#414952;" width="48.16" height="18.5"/>
	<rect x="231.92" y="229.37" style="fill:#414952;" width="48.16" height="18.5"/>
	<rect x="231.92" y="264.12" style="fill:#414952;" width="48.16" height="18.5"/>
	<rect x="231.92" y="298.87" style="fill:#414952;" width="48.16" height="18.5"/>
	<rect x="231.92" y="333.62" style="fill:#414952;" width="48.16" height="18.5"/>
</g>
<g>
	<rect x="255.57" y="194.62" style="fill:#23272B;" width="24.51" height="18.5"/>
	<rect x="255.57" y="229.37" style="fill:#23272B;" width="24.51" height="18.5"/>
	<rect x="255.57" y="264.12" style="fill:#23272B;" width="24.51" height="18.5"/>
	<rect x="255.57" y="298.87" style="fill:#23272B;" width="24.51" height="18.5"/>
	<rect x="255.57" y="333.62" style="fill:#23272B;" width="24.51" height="18.5"/>
</g>
<g>
</g>
<g>
</g>
<g>
</g>
<g>
</g>
<g>
</g>
<g>
</g>
<g>
</g>
<g>
</g>
<g>
</g>
<g>
</g>
<g>
</g>
<g>
</g>
<g>
</g>
<g>
</g>
<g>
</g>
</svg>
