<svg id="Capa_1" enable-background="new 0 0 497 497" height="512" viewBox="0 0 497 497" width="512" xmlns="http://www.w3.org/2000/svg"><g><path d="m456.911 167.418h-416.822c-5.723 0-11.165 1.199-16.09 3.36-14.129 6.199-20.811 23.023-20.811 39.441l-.881 145.699c0 22.141 19.034 37.373 41.174 37.373 8.25 0 14.951 6.662 15 14.911l-.688 45.319c.076 12.861 10.654 23.3 21.479 18.976 1.774-.709 3.49-1.74 5.08-3.124l66.877-58.212c5.243-4.564 11.193-8.143 17.565-10.632 6.902-2.696 15.177-6.237 22.706-6.237h261.963c15.222 0 31.91-6.358 38.698-18.854 3.086-5.68 4.839-12.19 4.839-19.109v-148.822c0-22.141-17.948-40.089-40.089-40.089z" fill="#fddf80"/><g><g><path d="m143 234.918h-94.5c-4.143 0-7.5-3.358-7.5-7.5s3.357-7.5 7.5-7.5h94.5c4.143 0 7.5 3.358 7.5 7.5s-3.357 7.5-7.5 7.5z" fill="#f9d070"/></g><g><path d="m218 234.918h-44.5c-4.143 0-7.5-3.358-7.5-7.5s3.357-7.5 7.5-7.5h44.5c4.143 0 7.5 3.358 7.5 7.5s-3.357 7.5-7.5 7.5z" fill="#f9d070"/></g><g><path d="m448.5 274.918h-128.787c-4.143 0-7.5-3.358-7.5-7.5s3.357-7.5 7.5-7.5h128.787c4.143 0 7.5 3.358 7.5 7.5s-3.357 7.5-7.5 7.5z" fill="#f9d070"/></g><g><path d="m236.822 274.918h-188.322c-4.143 0-7.5-3.358-7.5-7.5s3.357-7.5 7.5-7.5h188.322c4.143 0 7.5 3.358 7.5 7.5s-3.357 7.5-7.5 7.5z" fill="#f9d070"/></g><g><path d="m247.287 314.918h-198.787c-4.143 0-7.5-3.358-7.5-7.5s3.357-7.5 7.5-7.5h198.787c4.143 0 7.5 3.358 7.5 7.5s-3.357 7.5-7.5 7.5z" fill="#f9d070"/></g><g><path d="m448.5 355.918h-162.5c-4.143 0-7.5-3.358-7.5-7.5s3.357-7.5 7.5-7.5h162.5c4.143 0 7.5 3.358 7.5 7.5s-3.357 7.5-7.5 7.5z" fill="#f9d070"/></g></g><path d="m492.17 375.421c-6.78 12.51-20.03 21-35.26 21h-266.29c-14.48 0-28.47 5.23-39.39 14.74l24-21c10.92-9.51 24.91-14.74 39.39-14.74z" fill="#f9d070"/><path d="m79.27 472.491c-10.82 4.33-23.84-3.36-23.92-16.22l-.26-44.94c-.03-4.13-1.71-7.85-4.43-10.55-2.71-2.7-6.44-4.36-10.57-4.36-22.14 0-40.09-17.95-40.09-40.09v-148.82c0-16.42 9.87-30.53 24-36.73v177.64c0 14.912 12.088 27 27 27h8.095c11.028 0 19.975 8.927 20 19.955z" fill="#f9d070"/><path d="m185.191 119.514c0-42.802-34.698-77.5-77.5-77.5-19.101 0-36.589 6.91-50.099 18.368-5.569 4.723-8.023 11.184-12.075 17.287-8.143 12.266-12.385 24.558-12.385 40.384 0 42.802 32.506 76.038 75.308 76.038 18.032 0 32.406-4.204 45.572-14.532 6.837-5.363 14.22-10.881 18.931-18.214 7.753-12.068 12.248-26.425 12.248-41.831z" fill="#f9f8f9"/><path d="m172.94 161.341c-5.939 9.25-13.792 17.153-22.999 23.151l-41.499 9.598-43.002-9.599c-21.22-13.826-35.25-37.766-35.25-64.98 0-24.1 11-45.62 28.25-59.83-7.76 12.07-12.25 26.42-12.25 41.83 0 42.8 34.7 77.5 77.5 77.5 18.7 0 35.86-6.62 49.25-17.67z" fill="#efedef"/><path d="m149.94 174.511v9.98l-42.25 9.599-42.25-9.599v-9.98c0-11.04 8.96-20 20-20h44.5c11.05 0 20 8.96 20 20z" fill="#a2f5c3"/><g><path d="m149.94 174.451v10.03c-.846.371-.486.858-9.88 5.46-13.358 5.908-28.336 8.943-45.87 5.9-9.418-1.735-19.361-5.189-28.75-11.35v-9.98c0-5.99 2.64-11.37 6.82-15.03 13.69 12.16 31.69 19.53 51.43 19.53 9.21 0 18.05-1.6 26.25-4.56z" fill="#80e29e"/></g><path d="m130.191 102.438c0-12.426-10.074-22.5-22.5-22.5-2.554 0-5.008.425-7.296 1.209-8.845 3.03-13.704 12.031-13.704 21.903 0 12.426 8.574 18.406 21 18.406 9.874 0 18.262-2.878 21.291-11.725.784-2.287 1.209-4.74 1.209-7.293z" fill="#f1d0a5"/><path d="m128.98 109.731c-3.03 8.84-11.41 15.21-21.29 15.21-12.42 0-22.5-10.08-22.5-22.5 0-9.88 6.36-18.26 15.21-21.28-.79 2.28-1.21 4.73-1.21 7.28 0 12.42 10.08 22.5 22.5 22.5 2.55 0 5-.43 7.29-1.21z" fill="#f2bb88"/><g><path d="m446.528 100.09-177.218 177.031c-2.55 2.56-5.48 4.7-8.69 6.36l-13.492 6.997-13.958-8.235-8.408-12.79 7.968-14.353c1.65-3.21 3.8-6.14 6.35-8.7l176.292-177.246z" fill="#d8ecfe"/><path d="m247.128 290.478-30.348 15.681-2.301.708c-4.33 2.24-8.98-2.41-6.74-6.74l24.281-23.416z" fill="#617881"/><path d="m488.396 54.506-7.091 7.091-13.42 9.87-26.865-26.154 19.049-18.104c3.905-3.905 10.237-3.905 14.142 0l3.971 2.94 10.215 10.215c3.904 3.905 3.904 10.237-.001 14.142z" fill="#617881"/><path d="m481.31 61.601-12.01 12-18.369-12.593-9.911-15.697 19.09-19.09c3.91-3.9 10.24-3.9 14.14 0l3.93 3.93-11.332 11.332c-1.562 1.562-1.562 4.095 0 5.657z" fill="#495959"/><path d="m421.09 77.711-174.6 174.59c-2.55 2.56-4.7 5.49-6.35 8.7l-7.44 14.39-.68 1.32-6.337-1.793-1.984-6.527 7.44-14.39c1.65-3.21 3.8-6.14 6.35-8.7l175.6-175.59 6.135 1.866z" fill="#b3dafe"/><path d="m473.705 83.656-12.73 12.73-7.69 6.457c-1.562 1.562-4.095 1.562-5.657 0l-36-35.628c-1.562-1.562-1.562-4.095 0-5.657l19.376-18.826c1.562-1.562 4.095-1.562 5.657 0l7.737 5.96 29.307 29.307c1.562 1.562 1.562 4.094 0 5.657z" fill="#f9f8f9"/><path d="m460.98 96.391-7.78 7.77c-1.56 1.56-4.1 1.56-5.66 0l-37.08-37.09c-1.57-1.56-1.57-4.09 0-5.65l20.5-20.51c1.56-1.56 4.1-1.56 5.66 0l7.78 7.78-13.439 13.439c-1.172 1.172-1.172 3.071 0 4.243z" fill="#efedef"/><path d="m232.02 276.711-15.24 29.45-3.27 1.69c-4.33 2.24-8.98-2.41-6.74-6.74l16.93-32.72z" fill="#495959"/></g></g></svg>